<svg xmlns="http://www.w3.org/2000/svg" width="344" height="366" viewBox="0 0 344 366" role="img" shape-rendering="crispEdges">
<style>
.u{fill:#E6E6E6}.bar{fill:#E6E6E6}
.cap{fill:#57606A;font-family:ui-monospace,SFMono-Regular,Menlo,Consolas,monospace;font-size:13px;font-weight:600}
@media(prefers-color-scheme:dark){.u{fill:#2A2A2A}.bar{fill:#2A2A2A}.cap{fill:#8B949E}}
</style>
<g transform="translate(12,12)">
<rect x="192" y="0" width="16" height="16" fill="#000000"/>
<rect x="224" y="0" width="16" height="16" fill="#000000"/>
<rect x="176" y="16" width="16" height="16" fill="#000000"/>
<rect x="192" y="16" width="16" height="16" fill="#90DA92"/>
<rect x="208" y="16" width="16" height="16" fill="#000000"/>
<rect x="224" y="16" width="16" height="16" fill="#90DA92"/>
<rect x="240" y="16" width="16" height="16" fill="#000000"/>
<rect x="160" y="32" width="16" height="16" fill="#000000"/>
<rect x="176" y="32" width="16" height="16" fill="#000000"/>
<rect x="192" y="32" width="16" height="16" fill="#74C47A"/>
<rect x="208" y="32" width="16" height="16" fill="#90DA92"/>
<rect x="224" y="32" width="16" height="16" fill="#74C47A"/>
<rect x="240" y="32" width="16" height="16" fill="#000000"/>
<rect x="128" y="48" width="16" height="16" fill="#000000"/>
<rect x="144" y="48" width="16" height="16" fill="#000000"/>
<rect x="160" y="48" width="16" height="16" fill="#74C47A"/>
<rect x="176" y="48" width="16" height="16" fill="#55A05E"/>
<rect x="192" y="48" width="16" height="16" fill="#55A05E"/>
<rect x="208" y="48" width="16" height="16" fill="#74C47A"/>
<rect x="224" y="48" width="16" height="16" fill="#55A05E"/>
<rect x="240" y="48" width="16" height="16" fill="#74C47A"/>
<rect x="256" y="48" width="16" height="16" fill="#000000"/>
<rect x="272" y="48" width="16" height="16" fill="#000000"/>
<rect x="112" y="64" width="16" height="16" fill="#000000"/>
<rect x="128" y="64" width="16" height="16" fill="#74C47A"/>
<rect x="144" y="64" width="16" height="16" fill="#74C47A"/>
<rect x="160" y="64" width="16" height="16" fill="#55A05E"/>
<rect x="176" y="64" width="16" height="16" fill="#74C47A"/>
<rect x="192" y="64" width="16" height="16" fill="#55A05E"/>
<rect x="208" y="64" width="16" height="16" fill="#74C47A"/>
<rect x="224" y="64" width="16" height="16" fill="#55A05E"/>
<rect x="240" y="64" width="16" height="16" fill="#74C47A"/>
<rect x="256" y="64" width="16" height="16" fill="#74C47A"/>
<rect x="272" y="64" width="16" height="16" fill="#55A05E"/>
<rect x="288" y="64" width="16" height="16" fill="#000000"/>
<rect x="48" y="80" width="16" height="16" fill="#000000"/>
<rect x="96" y="80" width="16" height="16" fill="#000000"/>
<rect x="112" y="80" width="16" height="16" fill="#3F7A4C"/>
<rect x="128" y="80" width="16" height="16" fill="#74C47A"/>
<rect x="144" y="80" width="16" height="16" fill="#55A05E"/>
<rect x="160" y="80" width="16" height="16" fill="#74C47A"/>
<rect x="176" y="80" width="16" height="16" fill="#74C47A"/>
<rect x="192" y="80" width="16" height="16" fill="#55A05E"/>
<rect x="208" y="80" width="16" height="16" fill="#74C47A"/>
<rect x="224" y="80" width="16" height="16" fill="#74C47A"/>
<rect x="240" y="80" width="16" height="16" fill="#55A05E"/>
<rect x="256" y="80" width="16" height="16" fill="#74C47A"/>
<rect x="272" y="80" width="16" height="16" fill="#74C47A"/>
<rect x="288" y="80" width="16" height="16" fill="#55A05E"/>
<rect x="304" y="80" width="16" height="16" fill="#000000"/>
<rect x="32" y="96" width="16" height="16" fill="#000000"/>
<rect x="48" y="96" width="16" height="16" fill="#90DA92"/>
<rect x="64" y="96" width="16" height="16" fill="#000000"/>
<rect x="80" y="96" width="16" height="16" fill="#000000"/>
<rect x="96" y="96" width="16" height="16" fill="#3C3C3C"/>
<rect x="112" y="96" width="16" height="16" fill="#3F7A4C"/>
<rect x="128" y="96" width="16" height="16" fill="#55A05E"/>
<rect x="144" y="96" width="16" height="16" fill="#3F7A4C"/>
<rect x="160" y="96" width="16" height="16" fill="#74C47A"/>
<rect x="176" y="96" width="16" height="16" fill="#55A05E"/>
<rect x="192" y="96" width="16" height="16" fill="#74C47A"/>
<rect x="208" y="96" width="16" height="16" fill="#74C47A"/>
<rect x="224" y="96" width="16" height="16" fill="#74C47A"/>
<rect x="240" y="96" width="16" height="16" fill="#74C47A"/>
<rect x="256" y="96" width="16" height="16" fill="#55A05E"/>
<rect x="272" y="96" width="16" height="16" fill="#74C47A"/>
<rect x="288" y="96" width="16" height="16" fill="#3F7A4C"/>
<rect x="304" y="96" width="16" height="16" fill="#000000"/>
<rect x="32" y="112" width="16" height="16" fill="#000000"/>
<rect x="48" y="112" width="16" height="16" fill="#90DA92"/>
<rect x="64" y="112" width="16" height="16" fill="#90DA92"/>
<rect x="80" y="112" width="16" height="16" fill="#90DA92"/>
<rect x="96" y="112" width="16" height="16" fill="#74C47A"/>
<rect x="112" y="112" width="16" height="16" fill="#3C3C3C"/>
<rect x="128" y="112" width="16" height="16" fill="#3C3C3C"/>
<rect x="144" y="112" width="16" height="16" fill="#3F7A4C"/>
<rect x="160" y="112" width="16" height="16" fill="#3F7A4C"/>
<rect x="176" y="112" width="16" height="16" fill="#55A05E"/>
<rect x="192" y="112" width="16" height="16" fill="#74C47A"/>
<rect x="208" y="112" width="16" height="16" fill="#74C47A"/>
<rect x="224" y="112" width="16" height="16" fill="#74C47A"/>
<rect x="240" y="112" width="16" height="16" fill="#74C47A"/>
<rect x="256" y="112" width="16" height="16" fill="#55A05E"/>
<rect x="272" y="112" width="16" height="16" fill="#3F7A4C"/>
<rect x="288" y="112" width="16" height="16" fill="#3F7A4C"/>
<rect x="304" y="112" width="16" height="16" fill="#000000"/>
<rect x="32" y="128" width="16" height="16" fill="#000000"/>
<rect x="48" y="128" width="16" height="16" fill="#90DA92"/>
<rect x="64" y="128" width="16" height="16" fill="#90DA92"/>
<rect x="80" y="128" width="16" height="16" fill="#74C47A"/>
<rect x="96" y="128" width="16" height="16" fill="#55A05E"/>
<rect x="112" y="128" width="16" height="16" fill="#55A05E"/>
<rect x="128" y="128" width="16" height="16" fill="#74C47A"/>
<rect x="144" y="128" width="16" height="16" fill="#3C3C3C"/>
<rect x="160" y="128" width="16" height="16" fill="#3F7A4C"/>
<rect x="176" y="128" width="16" height="16" fill="#55A05E"/>
<rect x="192" y="128" width="16" height="16" fill="#3F7A4C"/>
<rect x="208" y="128" width="16" height="16" fill="#3F7A4C"/>
<rect x="224" y="128" width="16" height="16" fill="#3F7A4C"/>
<rect x="240" y="128" width="16" height="16" fill="#3F7A4C"/>
<rect x="256" y="128" width="16" height="16" fill="#55A05E"/>
<rect x="272" y="128" width="16" height="16" fill="#3F7A4C"/>
<rect x="288" y="128" width="16" height="16" fill="#3F7A4C"/>
<rect x="304" y="128" width="16" height="16" fill="#000000"/>
<rect x="16" y="144" width="16" height="16" fill="#000000"/>
<rect x="32" y="144" width="16" height="16" fill="#90DA92"/>
<rect x="48" y="144" width="16" height="16" fill="#90DA92"/>
<rect x="64" y="144" width="16" height="16" fill="#90DA92"/>
<rect x="80" y="144" width="16" height="16" fill="#55A05E"/>
<rect x="96" y="144" width="16" height="16" fill="#55A05E"/>
<rect x="112" y="144" width="16" height="16" fill="#55A05E"/>
<rect x="128" y="144" width="16" height="16" fill="#90DA92"/>
<rect x="144" y="144" width="16" height="16" fill="#74C47A"/>
<rect x="160" y="144" width="16" height="16" fill="#3C3C3C"/>
<rect x="176" y="144" width="16" height="16" fill="#3C3C3C"/>
<rect x="192" y="144" width="16" height="16" fill="#3C3C3C"/>
<rect x="208" y="144" width="16" height="16" fill="#3F7A4C"/>
<rect x="224" y="144" width="16" height="16" fill="#3F7A4C"/>
<rect x="240" y="144" width="16" height="16" fill="#3F7A4C"/>
<rect x="256" y="144" width="16" height="16" fill="#55A05E"/>
<rect x="272" y="144" width="16" height="16" fill="#3F7A4C"/>
<rect x="288" y="144" width="16" height="16" fill="#000000"/>
<rect x="16" y="160" width="16" height="16" fill="#000000"/>
<rect x="32" y="160" width="16" height="16" fill="#74C47A"/>
<rect x="48" y="160" width="16" height="16" fill="#90DA92"/>
<rect x="64" y="160" width="16" height="16" fill="#90DA92"/>
<rect x="80" y="160" width="16" height="16" fill="#90DA92"/>
<rect x="96" y="160" width="16" height="16" fill="#90DA92"/>
<rect x="112" y="160" width="16" height="16" fill="#90DA92"/>
<rect x="128" y="160" width="16" height="16" fill="#90DA92"/>
<rect x="144" y="160" width="16" height="16" fill="#90DA92"/>
<rect x="160" y="160" width="16" height="16" fill="#90DA92"/>
<rect x="176" y="160" width="16" height="16" fill="#90DA92"/>
<rect x="192" y="160" width="16" height="16" fill="#3C3C3C"/>
<rect x="208" y="160" width="16" height="16" fill="#3F7A4C"/>
<rect x="224" y="160" width="16" height="16" fill="#3F7A4C"/>
<rect x="240" y="160" width="16" height="16" fill="#55A05E"/>
<rect x="256" y="160" width="16" height="16" fill="#3C3C3C"/>
<rect x="272" y="160" width="16" height="16" fill="#000000"/>
<rect x="0" y="176" width="16" height="16" fill="#000000"/>
<rect x="16" y="176" width="16" height="16" fill="#B4544A"/>
<rect x="32" y="176" width="16" height="16" fill="#55A05E"/>
<rect x="48" y="176" width="16" height="16" fill="#90DA92"/>
<rect x="64" y="176" width="16" height="16" fill="#90DA92"/>
<rect x="80" y="176" width="16" height="16" fill="#90DA92"/>
<rect x="96" y="176" width="16" height="16" fill="#74C47A"/>
<rect x="112" y="176" width="16" height="16" fill="#90DA92"/>
<rect x="128" y="176" width="16" height="16" fill="#90DA92"/>
<rect x="144" y="176" width="16" height="16" fill="#90DA92"/>
<rect x="160" y="176" width="16" height="16" fill="#90DA92"/>
<rect x="176" y="176" width="16" height="16" fill="#3C3C3C"/>
<rect x="192" y="176" width="16" height="16" fill="#74C47A"/>
<rect x="208" y="176" width="16" height="16" fill="#3C3C3C"/>
<rect x="224" y="176" width="16" height="16" fill="#3C3C3C"/>
<rect x="240" y="176" width="16" height="16" fill="#3C3C3C"/>
<rect x="256" y="176" width="16" height="16" fill="#74C47A"/>
<rect x="272" y="176" width="16" height="16" fill="#000000"/>
<rect x="0" y="192" width="16" height="16" fill="#000000"/>
<rect x="16" y="192" width="16" height="16" fill="#90DA92"/>
<rect x="32" y="192" width="16" height="16" fill="#90DA92"/>
<rect x="48" y="192" width="16" height="16" fill="#90DA92"/>
<rect x="64" y="192" width="16" height="16" fill="#90DA92"/>
<rect x="80" y="192" width="16" height="16" fill="#55A05E"/>
<rect x="96" y="192" width="16" height="16" fill="#90DA92"/>
<rect x="112" y="192" width="16" height="16" fill="#3C3C3C"/>
<rect x="128" y="192" width="16" height="16" fill="#000000"/>
<rect x="144" y="192" width="16" height="16" fill="#3C3C3C"/>
<rect x="160" y="192" width="16" height="16" fill="#90DA92"/>
<rect x="176" y="192" width="16" height="16" fill="#74C47A"/>
<rect x="192" y="192" width="16" height="16" fill="#74C47A"/>
<rect x="208" y="192" width="16" height="16" fill="#74C47A"/>
<rect x="224" y="192" width="16" height="16" fill="#74C47A"/>
<rect x="240" y="192" width="16" height="16" fill="#74C47A"/>
<rect x="256" y="192" width="16" height="16" fill="#55A05E"/>
<rect x="272" y="192" width="16" height="16" fill="#55A05E"/>
<rect x="288" y="192" width="16" height="16" fill="#000000"/>
<rect x="16" y="208" width="16" height="16" fill="#000000"/>
<rect x="32" y="208" width="16" height="16" fill="#90DA92"/>
<rect x="48" y="208" width="16" height="16" fill="#90DA92"/>
<rect x="64" y="208" width="16" height="16" fill="#90DA92"/>
<rect x="80" y="208" width="16" height="16" fill="#90DA92"/>
<rect x="96" y="208" width="16" height="16" fill="#90DA92"/>
<rect x="112" y="208" width="16" height="16" fill="#000000"/>
<rect x="128" y="208" width="16" height="16" fill="#000000"/>
<rect x="144" y="208" width="16" height="16" fill="#FFFFFF"/>
<rect x="160" y="208" width="16" height="16" fill="#FFFFFF"/>
<rect x="176" y="208" width="16" height="16" fill="#74C47A"/>
<rect x="192" y="208" width="16" height="16" fill="#74C47A"/>
<rect x="208" y="208" width="16" height="16" fill="#74C47A"/>
<rect x="224" y="208" width="16" height="16" fill="#3C3C3C"/>
<rect x="240" y="208" width="16" height="16" fill="#74C47A"/>
<rect x="256" y="208" width="16" height="16" fill="#74C47A"/>
<rect x="272" y="208" width="16" height="16" fill="#55A05E"/>
<rect x="288" y="208" width="16" height="16" fill="#55A05E"/>
<rect x="304" y="208" width="16" height="16" fill="#000000"/>
<rect x="16" y="224" width="16" height="16" fill="#000000"/>
<rect x="32" y="224" width="16" height="16" fill="#3F7A4C"/>
<rect x="48" y="224" width="16" height="16" fill="#90DA92"/>
<rect x="64" y="224" width="16" height="16" fill="#90DA92"/>
<rect x="80" y="224" width="16" height="16" fill="#90DA92"/>
<rect x="96" y="224" width="16" height="16" fill="#000000"/>
<rect x="112" y="224" width="16" height="16" fill="#B4544A"/>
<rect x="128" y="224" width="16" height="16" fill="#FFFFFF"/>
<rect x="144" y="224" width="16" height="16" fill="#74C47A"/>
<rect x="160" y="224" width="16" height="16" fill="#74C47A"/>
<rect x="176" y="224" width="16" height="16" fill="#74C47A"/>
<rect x="192" y="224" width="16" height="16" fill="#55A05E"/>
<rect x="208" y="224" width="16" height="16" fill="#55A05E"/>
<rect x="224" y="224" width="16" height="16" fill="#3C3C3C"/>
<rect x="240" y="224" width="16" height="16" fill="#74C47A"/>
<rect x="256" y="224" width="16" height="16" fill="#74C47A"/>
<rect x="272" y="224" width="16" height="16" fill="#74C47A"/>
<rect x="288" y="224" width="16" height="16" fill="#000000"/>
<rect x="32" y="240" width="16" height="16" fill="#000000"/>
<rect x="48" y="240" width="16" height="16" fill="#000000"/>
<rect x="64" y="240" width="16" height="16" fill="#74C47A"/>
<rect x="80" y="240" width="16" height="16" fill="#74C47A"/>
<rect x="96" y="240" width="16" height="16" fill="#74C47A"/>
<rect x="112" y="240" width="16" height="16" fill="#74C47A"/>
<rect x="128" y="240" width="16" height="16" fill="#74C47A"/>
<rect x="144" y="240" width="16" height="16" fill="#74C47A"/>
<rect x="160" y="240" width="16" height="16" fill="#3C3C3C"/>
<rect x="176" y="240" width="16" height="16" fill="#74C47A"/>
<rect x="192" y="240" width="16" height="16" fill="#55A05E"/>
<rect x="208" y="240" width="16" height="16" fill="#55A05E"/>
<rect x="224" y="240" width="16" height="16" fill="#3C3C3C"/>
<rect x="240" y="240" width="16" height="16" fill="#74C47A"/>
<rect x="256" y="240" width="16" height="16" fill="#90DA92"/>
<rect x="272" y="240" width="16" height="16" fill="#000000"/>
<rect x="64" y="256" width="16" height="16" fill="#000000"/>
<rect x="80" y="256" width="16" height="16" fill="#000000"/>
<rect x="96" y="256" width="16" height="16" fill="#000000"/>
<rect x="112" y="256" width="16" height="16" fill="#000000"/>
<rect x="128" y="256" width="16" height="16" fill="#000000"/>
<rect x="144" y="256" width="16" height="16" fill="#000000"/>
<rect x="160" y="256" width="16" height="16" fill="#74C47A"/>
<rect x="176" y="256" width="16" height="16" fill="#74C47A"/>
<rect x="192" y="256" width="16" height="16" fill="#74C47A"/>
<rect x="208" y="256" width="16" height="16" fill="#74C47A"/>
<rect x="224" y="256" width="16" height="16" fill="#3C3C3C"/>
<rect x="240" y="256" width="16" height="16" fill="#000000"/>
<rect x="256" y="256" width="16" height="16" fill="#000000"/>
<rect x="144" y="272" width="16" height="16" fill="#000000"/>
<rect x="160" y="272" width="16" height="16" fill="#FFFFFF"/>
<rect x="176" y="272" width="16" height="16" fill="#74C47A"/>
<rect x="192" y="272" width="16" height="16" fill="#FFFFFF"/>
<rect x="208" y="272" width="16" height="16" fill="#3C3C3C"/>
<rect x="224" y="272" width="16" height="16" fill="#000000"/>
<rect x="160" y="288" width="16" height="16" fill="#000000"/>
<rect x="176" y="288" width="16" height="16" fill="#000000"/>
<rect x="192" y="288" width="16" height="16" fill="#000000"/>
<rect x="208" y="288" width="16" height="16" fill="#000000"/>
</g>
<g transform="translate(12,326)">
<rect x="0" y="0" width="320" height="6" rx="3" class="bar"/>
<rect x="0" y="0" width="320" height="6" rx="3" fill="#74C47A"/>
<text x="0" y="25" class="cap">#001 Bulbasaur  12,660 / 2,520  (100%)</text>
</g>
</svg>
